<svg width="144" height="30" viewBox="0 0 144 30" fill="none" xmlns="http://www.w3.org/2000/svg">
<path d="M32.6759 22.22C31.3293 22.22 30.1693 21.9 29.1959 21.26C28.2359 20.6067 27.5826 19.7133 27.2359 18.58L30.0759 17.78C30.2493 18.3267 30.5693 18.76 31.0359 19.08C31.5159 19.3867 32.0693 19.54 32.6959 19.54C33.3493 19.54 33.8759 19.3933 34.2759 19.1C34.6759 18.8067 34.8759 18.4267 34.8759 17.96C34.8759 17.7867 34.8493 17.6333 34.7959 17.5C34.7426 17.3667 34.6493 17.2467 34.5159 17.14C34.3826 17.02 34.2626 16.9267 34.1559 16.86C34.0493 16.7933 33.8759 16.72 33.6359 16.64C33.3959 16.56 33.2093 16.5067 33.0759 16.48C32.9559 16.44 32.7359 16.38 32.4159 16.3C32.1093 16.22 31.8959 16.1667 31.7759 16.14C31.2959 16.02 30.8826 15.9 30.5359 15.78C30.1893 15.66 29.8026 15.4867 29.3759 15.26C28.9626 15.0333 28.6226 14.7867 28.3559 14.52C28.0893 14.24 27.8626 13.8867 27.6759 13.46C27.5026 13.02 27.4159 12.5333 27.4159 12C27.4159 10.7867 27.9026 9.78 28.8759 8.98C29.8493 8.16667 31.0493 7.76 32.4759 7.76C33.7559 7.76 34.8226 8.06667 35.6759 8.68C36.5293 9.28 37.1293 10.14 37.4759 11.26L34.7959 12.04C34.4359 10.9333 33.6826 10.38 32.5359 10.38C31.8959 10.38 31.3826 10.54 30.9959 10.86C30.6226 11.18 30.4359 11.56 30.4359 12C30.4359 12.1333 30.4493 12.2533 30.4759 12.36C30.5159 12.4667 30.5693 12.5667 30.6359 12.66C30.7159 12.7533 30.7893 12.84 30.8559 12.92C30.9359 12.9867 31.0426 13.06 31.1759 13.14C31.3226 13.2067 31.4426 13.26 31.5359 13.3C31.6293 13.34 31.7759 13.3933 31.9759 13.46C32.1759 13.5133 32.3226 13.56 32.4159 13.6C32.5226 13.6267 32.6893 13.6733 32.9159 13.74C33.1559 13.7933 33.3226 13.8333 33.4159 13.86C33.8293 13.98 34.1159 14.06 34.2759 14.1C34.4359 14.14 34.7159 14.2333 35.1159 14.38C35.5159 14.5267 35.8093 14.66 35.9959 14.78C36.1826 14.8867 36.4226 15.0467 36.7159 15.26C37.0226 15.4733 37.2426 15.7 37.3759 15.94C37.5226 16.1667 37.6493 16.4533 37.7559 16.8C37.8759 17.1333 37.9359 17.4933 37.9359 17.88C37.9359 19.1733 37.4293 20.22 36.4159 21.02C35.4159 21.82 34.1693 22.22 32.6759 22.22ZM46.0413 22.2C44.0413 22.2 42.3479 21.5 40.9613 20.1C39.5879 18.7 38.9013 17 38.9013 15C38.9013 13 39.5879 11.3 40.9613 9.9C42.3479 8.5 44.0413 7.8 46.0413 7.8C48.0279 7.8 49.7079 8.5 51.0813 9.9C52.4679 11.3 53.1613 13 53.1613 15C53.1613 17 52.4679 18.7 51.0813 20.1C49.7079 21.5 48.0279 22.2 46.0413 22.2ZM46.0213 19.32C47.2079 19.32 48.2013 18.9067 49.0013 18.08C49.8146 17.24 50.2213 16.2133 50.2213 15C50.2213 13.7867 49.8146 12.7667 49.0013 11.94C48.2013 11.1 47.2079 10.68 46.0213 10.68C44.8479 10.68 43.8546 11.1 43.0413 11.94C42.2413 12.7667 41.8413 13.7867 41.8413 15C41.8413 16.2133 42.2413 17.24 43.0413 18.08C43.8546 18.9067 44.8479 19.32 46.0213 19.32ZM55.0091 22V8H58.3691L62.8491 16.24L67.3291 8H70.6891V22H67.7491V13.02L63.9691 19.74H61.7091L57.9491 13.04V22H55.0091ZM73.1341 22V8H83.0141V10.62H76.0741V13.7H82.8741V16.24H76.0741V19.38H83.0141V22H73.1341ZM84.9505 22V8H88.2505L94.3505 17.28V8H97.2905V22H93.9705L87.8905 12.74V22H84.9505ZM98.6561 22L104.296 8H107.396L113.096 22H109.856L108.956 19.7H102.776L101.896 22H98.6561ZM103.716 17.02H108.016L105.876 11.38H105.836L103.716 17.02ZM114.482 22V8H117.842L122.322 16.24L126.802 8H130.162V22H127.222V13.02L123.442 19.74H121.182L117.422 13.04V22H114.482ZM132.607 22V8H142.487V10.62H135.547V13.7H142.347V16.24H135.547V19.38H142.487V22H132.607Z" fill="black"/>
<rect y="3" width="30" height="24" fill="white"/>
<path d="M3.37716 6.02849L3.37716 11.414L0.138508 14.6527C-0.0461701 14.8374 -0.0461701 15.1368 0.138508 15.3215L3.37722 18.5602L3.37722 23.9715C3.37722 24.744 4.00566 25.3724 4.77817 25.3724L28.599 25.3724C29.3715 25.3724 29.9999 24.744 29.9999 23.9715L29.9999 6.02849C29.9999 5.25598 29.3715 4.62754 28.599 4.62754L4.7781 4.62754C4.00566 4.62754 3.37716 5.25598 3.37716 6.02849ZM1.1416 14.9871L3.37716 12.7515L3.37716 17.2226L1.1416 14.9871ZM28.599 5.57332C28.85 5.57332 29.0541 5.77748 29.0541 6.02849L29.0541 23.9715C29.0541 24.2224 28.85 24.4267 28.599 24.4267L4.7781 24.4267C4.5271 24.4267 4.32293 24.2225 4.32293 23.9715L4.32293 6.02849C4.32293 5.77754 4.5271 5.57332 4.7781 5.57332L28.599 5.57332ZM5.00831 7.42912L5.00831 22.5709C5.00831 23.2162 5.53334 23.7413 6.17874 23.7413L19.9816 23.7413C19.9818 23.7413 19.9821 23.7413 19.9823 23.7413L27.2603 23.7413C27.9056 23.7413 28.4307 23.2163 28.4307 22.5709L28.4307 7.42912C28.4307 6.78378 27.9057 6.25869 27.2603 6.25869L6.17873 6.25869C5.5334 6.25875 5.00831 6.78378 5.00831 7.42912ZM5.95408 22.5709L5.95408 9.90932L18.8403 22.7955L6.17874 22.7955C6.05698 22.7955 5.95408 22.6926 5.95408 22.5709ZM27.4849 7.42912L27.4849 22.5709C27.4849 22.6926 27.3821 22.7955 27.2603 22.7955L25.8251 22.7955L24.625 21.5953C24.4403 21.4106 24.1408 21.4106 23.9562 21.5953C23.7715 21.7801 23.7715 22.0794 23.9562 22.2641L24.4876 22.7955L20.1779 22.7955L5.95408 8.5718L5.95408 7.42912C5.95408 7.30737 6.05692 7.20447 6.17873 7.20447L8.89658 7.20447L21.1606 19.4685C21.3453 19.6532 21.6448 19.6532 21.8294 19.4685C21.9217 19.3762 21.9679 19.2551 21.9679 19.1341C21.9679 19.0131 21.9217 18.892 21.8294 18.7997L10.2342 7.20447L27.2603 7.20446C27.3821 7.20453 27.4849 7.30736 27.4849 7.42912Z" fill="black"/>
</svg>
